<?xml version="1.0" encoding="UTF-8" standalone="no"?>
<!-- Created with Inkscape (http://www.inkscape.org/) -->

<svg
   width="124"
   height="53"
   viewBox="0 0 32.808333 14.022917"
   version="1.1"
   id="svg2880"
   inkscape:export-filename="ResidencialMN.svg"
   inkscape:export-xdpi="96"
   inkscape:export-ydpi="96"
   inkscape:version="1.2.2 (b0a8486541, 2022-12-01, custom)"
   sodipodi:docname="vehicleMN.svg"
   xmlns:inkscape="http://www.inkscape.org/namespaces/inkscape"
   xmlns:sodipodi="http://sodipodi.sourceforge.net/DTD/sodipodi-0.dtd"
   xmlns:xlink="http://www.w3.org/1999/xlink"
   xmlns="http://www.w3.org/2000/svg"
   xmlns:svg="http://www.w3.org/2000/svg">
  <sodipodi:namedview
     id="namedview2882"
     pagecolor="#ffffff"
     bordercolor="#000000"
     borderopacity="0.25"
     inkscape:showpageshadow="2"
     inkscape:pageopacity="0.0"
     inkscape:pagecheckerboard="0"
     inkscape:deskcolor="#d1d1d1"
     inkscape:document-units="mm"
     showgrid="false"
     inkscape:zoom="4.797533"
     inkscape:cx="67.117829"
     inkscape:cy="28.452123"
     inkscape:window-width="1304"
     inkscape:window-height="704"
     inkscape:window-x="0"
     inkscape:window-y="0"
     inkscape:window-maximized="1"
     inkscape:current-layer="layer1" />
  <defs
     id="defs2877">
    <linearGradient
       id="linearGradient14465"
       inkscape:swatch="solid">
      <stop
         style="stop-color:#e11919;stop-opacity:1;"
         offset="0"
         id="stop14463" />
    </linearGradient>
    <linearGradient
       id="linearGradient7734"
       inkscape:swatch="solid">
      <stop
         style="stop-color:#1d2f34;stop-opacity:1;"
         offset="0"
         id="stop7732" />
    </linearGradient>
    <linearGradient
       id="linearGradient7728"
       inkscape:swatch="solid">
      <stop
         style="stop-color:#b3b3b3;stop-opacity:1;"
         offset="0"
         id="stop7726" />
    </linearGradient>
    <linearGradient
       id="linearGradient1333"
       inkscape:swatch="solid">
      <stop
         style="stop-color:#121927;stop-opacity:1;"
         offset="0"
         id="stop1331" />
    </linearGradient>
    <linearGradient
       inkscape:collect="always"
       xlink:href="#linearGradient7728"
       id="linearGradient14467"
       x1="55.769089"
       y1="66.967567"
       x2="75.648132"
       y2="66.967567"
       gradientUnits="userSpaceOnUse" />
  </defs>
  <g
     inkscape:label="Capa 1"
     inkscape:groupmode="layer"
     id="layer1">
    <path
       style="fill:#000080;stroke-width:0.119837;stroke-dasharray:none"
       d="m 16.66181,17.490927 a 5.9193419,5.976136 0 0 1 -0.129078,-0.18979 5.9193419,5.976136 0 0 1 -0.110568,0.17153 v 0.0182 z"
       id="path3660-2-3" />
    <path
       id="path7199-6-9-5"
       style="display:inline;fill:#ffffff;fill-opacity:1;stroke:#59524f;stroke-width:0.389791;stroke-dasharray:none;stroke-opacity:1"
       class="UnoptimicedTransforms"
       d="m 66.120989,49.501904 c -3.385628,0.0475 -6.77121,0.09504 -10.157003,0.142627 v 2.035018 c 2.960617,-0.04173 5.921037,-0.08359 8.881629,-0.125057 l 4.913912,13.781588 c -4.598678,-0.0017 -9.196937,-4.12e-4 -13.795541,0 v 2.872693 h 7.903394 v 5.818766 h -7.903394 v 2.603459 h 12.902572 v 7.451224 a 6.1841731,4.5882106 0 0 0 2.363163,0.35295 6.1841731,4.5882106 0 0 0 2.297534,-0.332796 v -7.471378 h 1.925981 V 65.33608 H 71.767673 C 69.885551,60.058333 68.003109,54.779651 66.120989,49.501904 Z m 3.926892,17.598926 c 4.033682,-0.0361 5.258606,6.28081 1.323434,7.639327 -3.775405,1.828636 -7.457032,-3.682159 -4.322734,-6.470406 l 1.28726,-0.861446 1.517737,-0.300757 c 0.06543,-0.0038 0.130276,-0.0061 0.194303,-0.0067 z"
       transform="matrix(-0.77291994,0,0,0.35369965,59.375512,-16.533096)" />
    <path
       id="path7199-8-3"
       style="display:inline;fill:url(#linearGradient14467);fill-opacity:1;stroke:#000000;stroke-width:0.39016256;stroke-dasharray:none;stroke-opacity:1"
       class="UnoptimicedTransforms"
       d="m 66.120989,49.501904 c -3.385628,0.0475 -6.77121,0.09504 -10.157003,0.142627 v 2.035018 c 2.960617,-0.04173 5.921037,-0.08359 8.881629,-0.125057 l 4.913912,13.781588 c -4.598678,-0.0017 -9.196937,-4.12e-4 -13.795541,0 v 2.872693 h 7.903394 v 5.818766 h -7.903394 v 2.603459 h 12.902572 v 7.451224 a 6.1841731,4.5882106 0 0 0 2.363163,0.35295 6.1841731,4.5882106 0 0 0 2.297534,-0.332796 v -7.471378 h 1.925981 V 65.33608 H 71.767673 C 69.885551,60.058333 68.003109,54.779651 66.120989,49.501904 Z m 3.926892,17.598926 c 4.033682,-0.0361 5.258606,6.28081 1.323434,7.639327 -3.775405,1.828636 -7.457032,-3.682159 -4.322734,-6.470406 l 1.28726,-0.861446 1.517737,-0.300757 c 0.06543,-0.0038 0.130276,-0.0061 0.194303,-0.0067 z"
       transform="matrix(0.77291994,0,0,0.35369965,-26.713934,-16.525954)" />
  </g>
</svg>
